# xmcd CD database file
#
# Track frame offsets:
#	150
#	21119
#	36607
#	51267
#	67896
#	87584
#	110247
#	136927
#
# Disc length: 2033 seconds
#
# Revision: 0
# Processed by: cddbd v1.5.2PL0 Copyright (c) Steve Scherf et al.
# Submitted via: CDex 1.75
#
DISCID=7307ef08
DTITLE=The Little Hot Gang - 1er Album
DYEAR=2014
DGENRE=Jazz
TTITLE0=When I Get Low I Get High
TTITLE1=Tight Like That
TTITLE2=Hesitation Blues
TTITLE3=Why Don't you do Right
TTITLE4=Georgia on my Mind
TTITLE5=Speaking of Happiness
TTITLE6=Do you Know What it means
TTITLE7=You Got to Move
EXTD=YEAR: 2014
EXTT0=
EXTT1=
EXTT2=
EXTT3=
EXTT4=
EXTT5=
EXTT6=
EXTT7=
PLAYORDER=
